# xmcd
#
# Track frame offsets:
#	150
#	12092
#	23772
#	35495
#	48555
#	61982
#	74345
#	89565
#	101045
#	113957
#	125897
#	137745
#	150180
#	163335
#
# Disc length: 2357 seconds
#
# Revision: 0
# Processed by: cddbd v1.5.1PL0 Copyright (c) Steve Scherf et al.
# Submitted via: dBpowerAMP V4.0
#
DISCID=c109330e
DTITLE=Various Artist - Those Wonderful Years 1920-1960
DYEAR=1995
DGENRE=Country
TTITLE0=Back in the Saddle - Gene Autry
TTITLE1=Wabash Cannonball - Roy Acuff
TTITLE2=I want to be a Cowboy's Sweeheart - Patsy Montana
TTITLE3=Anytime - Eddy Arnold
TTITLE4=If you've got the money honey I've got the time - Lefty Frizzel
TTITLE5=Cold Cold Heart - Hank Williams Sr.
TTITLE6=Blue Yodel No. 1 - Jimmie Rodgers
TTITLE7=It wasn't God who made Honkeytonk Angels - Kitty Wells
TTITLE8=Tumbling Tumbleweeds - Sons of the Pioneers
TTITLE9=San Antonio Rose - Bob Wills
TTITLE10=Walkin the floor over you - Ernest Tubb
TTITLE11=I Love you so much it hurts - Jimmy Wakely
TTITLE12=Smoke Smoke Smoke that cigarette - Texas Williams
TTITLE13=Happy Trails - Roy Rodgers and Dale Evans
EXTD=1920-1960s Compliation titled:  'Those Wonderful Years' \nSub-titled: 'Back in the Saddle Again'\nVarious Artists
EXTT0=
EXTT1=
EXTT2=
EXTT3=
EXTT4=
EXTT5=
EXTT6=
EXTT7=
EXTT8=
EXTT9=
EXTT10=
EXTT11=
EXTT12=
EXTT13=
PLAYORDER=
